# 3ds Max Wavefront OBJ Exporter v0.97b - (c)2007 guruware
# File Created: 22.04.2018 18:30:38

mtllib OBJ_ejemplo1.mtl

#
# object Box001
#

v  -31.7742 0.0000 18.6420
v  -31.7742 0.0000 -40.2192
v  8.1622 0.0000 -40.2192
v  8.1622 0.0000 18.6420
v  -31.7742 40.1870 18.6420
v  8.1622 40.1870 18.6420
v  8.1622 40.1870 -40.2192
v  -31.7742 40.1870 -40.2192
# 8 vertices

vn 0.0000 -1.0000 -0.0000
vn 0.0000 1.0000 -0.0000
vn 0.0000 0.0000 1.0000
vn 1.0000 0.0000 -0.0000
vn 0.0000 0.0000 -1.0000
vn -1.0000 0.0000 -0.0000
# 6 vertex normals

vt 39.9364 0.0000 0.0000
vt 39.9364 58.8612 0.0000
vt 0.0000 58.8612 0.0000
vt 0.0000 0.0000 0.0000
vt 39.9364 40.1870 0.0000
vt 0.0000 40.1870 0.0000
vt 58.8612 0.0000 0.0000
vt 58.8612 40.1870 0.0000
# 8 texture coords

g Box001
usemtl 20___Default
s 2
f 1/1/1 2/2/1 3/3/1 4/4/1 
s 4
f 5/4/2 6/1/2 7/2/2 8/3/2 
s 8
f 1/4/3 4/1/3 6/5/3 5/6/3 
s 16
f 4/4/4 3/7/4 7/8/4 6/6/4 
s 32
f 3/4/5 2/1/5 8/5/5 7/6/5 
s 64
f 2/4/6 1/7/6 5/8/6 8/6/6 
# 6 polygons

#
# object Box002
#

v  13.8052 0.0000 63.3830
v  13.8052 0.0000 24.2850
v  52.9031 0.0000 24.2850
v  52.9031 0.0000 63.3830
v  13.8052 28.2164 63.3830
v  52.9031 28.2164 63.3830
v  52.9031 28.2164 24.2850
v  13.8052 28.2164 24.2850
# 8 vertices

vn 0.0000 -1.0000 -0.0000
vn 0.0000 1.0000 -0.0000
vn 0.0000 0.0000 1.0000
vn 1.0000 0.0000 -0.0000
vn 0.0000 0.0000 -1.0000
vn -1.0000 0.0000 -0.0000
# 6 vertex normals

vt 39.0979 0.0000 0.0000
vt 39.0979 39.0979 0.0000
vt 0.0000 39.0979 0.0000
vt 0.0000 0.0000 0.0000
vt 39.0979 28.2164 0.0000
vt 0.0000 28.2164 0.0000
# 6 texture coords

g Box002
usemtl wire_135006006
s 2
f 9/9/7 10/10/7 11/11/7 12/12/7 
s 4
f 13/12/8 14/9/8 15/10/8 16/11/8 
s 8
f 9/12/9 12/9/9 14/13/9 13/14/9 
s 16
f 12/12/10 11/9/10 15/13/10 14/14/10 
s 32
f 11/12/11 10/9/11 16/13/11 15/14/11 
s 64
f 10/12/12 9/9/12 13/13/12 16/14/12 
# 6 polygons

#
# object Plane001
#

v  -63.1422 0.0000 35.1290
v  -63.1422 0.0000 67.3368
v  -31.7486 0.0000 67.3368
v  -31.7486 0.0000 35.1290
v  -0.3550 0.0000 67.3368
v  -0.3550 0.0000 35.1290
v  31.0385 0.0000 67.3368
v  31.0385 0.0000 35.1290
v  62.4321 0.0000 67.3368
v  62.4321 0.0000 35.1290
v  -63.1422 0.0000 2.9213
v  -31.7486 0.0000 2.9213
v  -0.3550 0.0000 2.9213
v  31.0385 0.0000 2.9213
v  62.4321 0.0000 2.9213
v  -63.1422 0.0000 -29.2864
v  -31.7486 0.0000 -29.2864
v  -0.3550 0.0000 -29.2864
v  31.0385 0.0000 -29.2864
v  62.4321 0.0000 -29.2864
v  -63.1422 0.0000 -61.4941
v  -31.7486 0.0000 -61.4941
v  -0.3550 0.0000 -61.4941
v  31.0385 0.0000 -61.4941
v  62.4321 0.0000 -61.4941
# 25 vertices

vn 0.0000 1.0000 -0.0000
# 1 vertex normals

vt 0.0000 32.2077 0.0000
vt 0.0000 0.0000 0.0000
vt 31.3936 0.0000 0.0000
vt 31.3936 32.2077 0.0000
vt 62.7872 0.0000 0.0000
vt 62.7872 32.2077 0.0000
vt 94.1807 0.0000 0.0000
vt 94.1807 32.2077 0.0000
vt 125.5743 0.0000 0.0000
vt 125.5743 32.2077 0.0000
vt 0.0000 64.4155 0.0000
vt 31.3936 64.4155 0.0000
vt 62.7872 64.4155 0.0000
vt 94.1807 64.4155 0.0000
vt 125.5743 64.4155 0.0000
vt 0.0000 96.6232 0.0000
vt 31.3936 96.6232 0.0000
vt 62.7872 96.6232 0.0000
vt 94.1807 96.6232 0.0000
vt 125.5743 96.6232 0.0000
vt 0.0000 128.8309 0.0000
vt 31.3936 128.8309 0.0000
vt 62.7872 128.8309 0.0000
vt 94.1807 128.8309 0.0000
vt 125.5743 128.8309 0.0000
# 25 texture coords

g Plane001
usemtl 19___Default
s 1
f 17/15/13 18/16/13 19/17/13 20/18/13 
f 20/18/13 19/17/13 21/19/13 22/20/13 
f 22/20/13 21/19/13 23/21/13 24/22/13 
f 24/22/13 23/21/13 25/23/13 26/24/13 
f 27/25/13 17/15/13 20/18/13 28/26/13 
f 28/26/13 20/18/13 22/20/13 29/27/13 
f 29/27/13 22/20/13 24/22/13 30/28/13 
f 30/28/13 24/22/13 26/24/13 31/29/13 
f 32/30/13 27/25/13 28/26/13 33/31/13 
f 33/31/13 28/26/13 29/27/13 34/32/13 
f 34/32/13 29/27/13 30/28/13 35/33/13 
f 35/33/13 30/28/13 31/29/13 36/34/13 
f 37/35/13 32/30/13 33/31/13 38/36/13 
f 38/36/13 33/31/13 34/32/13 39/37/13 
f 39/37/13 34/32/13 35/33/13 40/38/13 
f 40/38/13 35/33/13 36/34/13 41/39/13 
# 16 polygons

